<svg width="24" height="24" viewBox="0 0 24 24" fill="none" xmlns="http://www.w3.org/2000/svg">
<path d="M24 0V24H0V0H24Z" fill="white" fill-opacity="0.01"/>
<path d="M11.2883 15.5353C9.97627 14.8749 9.00777 14.0306 8.25326 12.8736C8.00265 12.4892 7.87734 12.2971 7.87736 11.9998C7.87739 11.7025 8.00273 11.5104 8.25342 11.1261C9.00807 9.9692 9.97656 9.12483 11.2883 8.46423M8.46448 12L16.2427 12.0001M21 12C21 16.9706 16.9706 21 12 21C7.02944 21 3 16.9706 3 12C3 7.02944 7.02944 3 12 3C16.9706 3 21 7.02944 21 12Z" stroke="#10161F" stroke-width="2" stroke-linecap="round" stroke-linejoin="round"/>
</svg>
