<svg xmlns="http://www.w3.org/2000/svg" width="24" height="24" fill="none"><path fill="#fff" fill-opacity=".01" d="M24 0v24H0V0z"/><path fill="#10161F" fill-rule="evenodd" d="M10.417 6.5h3.166c-.4-.394-.7-.675-.965-.877-.348-.265-.51-.295-.618-.295-.108 0-.27.03-.618.295-.264.202-.566.483-.965.877m6.034.037-.962-.963c-.627-.626-1.167-1.167-1.658-1.54-.525-.402-1.11-.706-1.83-.706-.722 0-1.306.304-1.832.705-.491.374-1.031.915-1.658 1.541l-.046.047-.916.916c-.128.007-.252.015-.37.025-.76.065-1.425.201-2.036.528A5 5 0 0 0 3.09 9.143c-.326.611-.463 1.276-.527 2.035-.08.937-.063 1.882-.063 2.822 0 .94-.017 1.884.063 2.821.064.76.2 1.424.527 2.036a5 5 0 0 0 2.053 2.052c.611.327 1.277.463 2.035.528.737.063 1.648.063 2.777.063h4.09c1.13 0 2.04 0 2.777-.063.759-.065 1.424-.2 2.035-.528a5 5 0 0 0 2.053-2.052c.326-.612.463-1.277.527-2.036.08-.937.063-1.882.063-2.821 0-.94.017-1.885-.063-2.822-.064-.759-.2-1.424-.527-2.035a5 5 0 0 0-2.053-2.053c-.611-.327-1.276-.463-2.035-.528-.12-.01-.243-.018-.37-.025M14.001 13H8a1 1 0 1 1 0-2h6a1 1 0 1 1 0 2m-4 4H8a1 1 0 1 1 0-2h2a1 1 0 1 1 0 2" clip-rule="evenodd"/></svg>