<svg xmlns="http://www.w3.org/2000/svg" width="24" height="24" fill="none"><path fill="#fff" fill-opacity=".01" d="M24 0v24H0V0z"/><path stroke="#10161F" stroke-linejoin="round" stroke-width="2" d="m9.903 4.292.148-.446c.304-.912 1.594-.912 1.898 0l.149.446a11.628 11.628 0 0 0 6.053 6.832.97.97 0 0 1 0 1.752 11.628 11.628 0 0 0-6.053 6.832l-.15.446c-.303.912-1.593.912-1.897 0l-.148-.446a11.628 11.628 0 0 0-6.054-6.832.97.97 0 0 1 0-1.752 11.628 11.628 0 0 0 6.054-6.832Z"/><path stroke="#10161F" stroke-width="2" d="M19 3.585A4.293 4.293 0 0 0 20.395 5 4.293 4.293 0 0 0 19 6.415 4.293 4.293 0 0 0 17.605 5 4.293 4.293 0 0 0 19 3.585Zm-2.224 1.013z"/></svg>