<svg xmlns="http://www.w3.org/2000/svg" width="24" height="24" fill="none"><path fill="#fff" fill-opacity=".01" d="M24 0v24H0V0z"/><path stroke="#10161F" stroke-linecap="round" stroke-linejoin="round" stroke-width="2" d="m14.182 9.818 1.06-1.06m-3.535-.708s1.414-2.828.707-4.95m3.182 9.546s2.475-.353 4.243.707m-2.475-6.717.707-.707m.354 3.889h.707M9.236 19.844l1.394-.477c2.723-.932 4.085-1.398 4.336-2.48.25-1.08-.767-2.098-2.802-4.133l-.918-.918C9.211 9.801 8.193 8.783 7.112 9.034c-1.081.25-1.547 1.612-2.479 4.336l-.477 1.394c-1.15 3.36-1.724 5.04-.842 5.922.881.882 2.561.307 5.922-.842"/></svg>