<svg xmlns="http://www.w3.org/2000/svg" width="24" height="24" fill="none"><path fill="#fff" fill-opacity=".01" d="M24 0v24H0V0z"/><path fill="#10161F" d="M7.5 10.5a1 1 0 1 0 0 2zm4 2a1 1 0 1 0 0-2zm-4 3a1 1 0 1 0 0 2zm2 2a1 1 0 1 0 0-2zM20.028 4.614l-.882.472zm-1.642-1.642-.472.882zM5.614 21.028l.472-.882zm-1.642-1.642-.882.471zm12.056 0 .882.471zm0-10.772.882-.471zm-1.642-1.642-.472.882zM3.972 8.614l-.882-.471zm1.642-1.642.472.882zM15.5 13v2h2v-2zm-11 2v-2h-2v2zm3-2.5h4v-2h-4zm0 5h2v-2h-2zm14-4V9h-2v4.5zM14 1.5h-2.5v2H14zm-2.5 0a5 5 0 0 0-5 5h2a3 3 0 0 1 3-3zm10 7.5c0-1.15 0-2.075-.063-2.822-.064-.758-.2-1.424-.527-2.035l-1.764.943c.145.272.245.632.299 1.262.054.642.055 1.467.055 2.652zM14 3.5c1.185 0 2.01 0 2.652.055.63.054.99.154 1.262.3l.943-1.765c-.611-.326-1.277-.463-2.035-.527C16.075 1.499 15.15 1.5 14 1.5zm6.91.643a5 5 0 0 0-2.053-2.053l-.943 1.764a3 3 0 0 1 1.232 1.232zM19.5 13.5a3 3 0 0 1-3 3v2a5 5 0 0 0 5-5zm-9.5 7c-1.185 0-2.01 0-2.652-.055-.63-.054-.99-.154-1.262-.3l-.943 1.765c.611.326 1.277.463 2.035.527.747.064 1.672.063 2.822.063zM2.5 15c0 1.15 0 2.075.063 2.822.064.758.2 1.424.527 2.035l1.764-.943c-.145-.272-.245-.632-.299-1.262C4.501 17.01 4.5 16.184 4.5 15zm3.586 5.146a3 3 0 0 1-1.232-1.232l-1.764.943a5 5 0 0 0 2.053 2.053zM15.5 15c0 1.185 0 2.01-.055 2.652-.054.63-.154.99-.3 1.262l1.765.943c.326-.611.463-1.277.527-2.035.064-.747.063-1.672.063-2.822zM10 22.5c1.15 0 2.075 0 2.822-.063.758-.064 1.424-.2 2.035-.527l-.943-1.764c-.272.145-.632.245-1.262.299-.642.054-1.467.055-2.652.055zm5.146-3.586a3 3 0 0 1-1.232 1.232l.943 1.764a5 5 0 0 0 2.053-2.053zM17.5 13c0-1.15 0-2.075-.063-2.822-.064-.758-.2-1.424-.527-2.035l-1.764.943c.145.272.245.632.299 1.262.054.642.055 1.467.055 2.652zM10 7.5c1.185 0 2.01 0 2.652.055.63.054.99.154 1.262.3l.943-1.765c-.611-.326-1.277-.463-2.035-.527C12.075 5.499 11.15 5.5 10 5.5zm6.91.643a5 5 0 0 0-2.053-2.053l-.943 1.764a3 3 0 0 1 1.232 1.232zM4.5 13c0-1.184 0-2.01.055-2.652.054-.63.154-.99.3-1.262L3.09 8.143c-.326.611-.463 1.277-.527 2.035C2.499 10.925 2.5 11.85 2.5 13zM10 5.5c-1.15 0-2.075 0-2.822.063-.758.064-1.424.2-2.035.527l.943 1.764c.272-.145.632-.245 1.262-.299C7.99 7.501 8.815 7.5 10 7.5zM4.854 9.086a3 3 0 0 1 1.232-1.232L5.143 6.09A5 5 0 0 0 3.09 8.143z"/></svg>