<svg xmlns="http://www.w3.org/2000/svg" width="24" height="24" fill="none"><path fill="#fff" fill-opacity=".01" d="M24 0v24H0V0z"/><path fill="#10161F" fill-rule="evenodd" d="M12 4c-4.424 0-8 3.562-8 7.943 0 1.418.204 2.224.437 2.82 1.402-1.13 3.377-.923 4.625.317a3.301 3.301 0 0 1 0 4.683c-.886.881-2.363 1.023-3.357.092-1.428-1.34-2.667-2.896-3.279-4.779C2.17 14.284 2 13.305 2 11.943 2 6.445 6.483 2 12 2s10 4.445 10 9.943c0 1.362-.169 2.34-.426 3.133-.612 1.883-1.851 3.44-3.28 4.779-.993.931-2.47.79-3.357-.092a3.302 3.302 0 0 1 0-4.683c1.249-1.24 3.224-1.447 4.626-.317.233-.596.437-1.402.437-2.82C20 7.562 16.424 4 12 4" clip-rule="evenodd"/></svg>