<svg xmlns="http://www.w3.org/2000/svg" width="24" height="24" fill="none"><path fill="#fff" fill-opacity=".01" d="M24 0v24H0V0z"/><path fill="#10161F" d="m3.002 10.37 1-.022zm17.996 0-1-.022zm-7.57-4.663a1 1 0 1 0-1.415-1.414zm.233 5.24-.707-.707zm-.865.866-.707-.708zM10.673 4.63l-.503.865zm1.118.593L12 4.246zm.418 0L12 4.246zm-8.207 5.124c-.044-1.96.846-3.601 2.074-4.527C7.29 4.905 8.8 4.699 10.17 5.496l1.006-1.729c-2.164-1.259-4.542-.872-6.305.457-1.75 1.319-2.927 3.575-2.869 6.17zm17.996.045c.058-2.594-1.12-4.85-2.87-6.17-1.762-1.328-4.14-1.715-6.304-.456l1.006 1.729c1.37-.797 2.88-.591 4.094.325 1.228.926 2.118 2.567 2.074 4.527zm-11.296 7.918c-4.66-2.768-6.644-5.45-6.7-7.963l-2 .045c.081 3.61 2.89 6.794 7.679 9.638zm3.617 1.72c4.788-2.844 7.598-6.029 7.679-9.638l-2-.045c-.056 2.512-2.04 5.195-6.7 7.963zM12.013 4.293l-4.23 4.23 1.415 1.414 4.23-4.23zm1.49 8.227.865-.866-1.414-1.414-.866.865zm.659-.866 1.293 1.293 1.414-1.414-1.293-1.293zm1.293 1.293a4.275 4.275 0 0 0 5.662.34l-1.235-1.573c-.905.711-2.199.633-3.013-.18zm-1.087-1.293a.146.146 0 0 1-.207 0l1.415-1.414a1.854 1.854 0 0 0-2.622 0zm-6.584.866a4.044 4.044 0 0 0 5.719 0l-1.415-1.415a2.044 2.044 0 0 1-2.89 0zm0-3.997a2.826 2.826 0 0 0 0 3.997l1.414-1.415a.826.826 0 0 1 0-1.168zM9.68 20.031a4.549 4.549 0 0 0 4.638 0l-1.021-1.72a2.549 2.549 0 0 1-2.596 0zm.49-14.535c.314.183.57.332.767.438.16.087.402.217.644.268L12 4.246c.064.014.09.03.052.013a2.691 2.691 0 0 1-.162-.083 31.456 31.456 0 0 1-.714-.409zm2.653-1.729c-.326.19-.551.32-.714.409-.081.044-.132.069-.162.083-.038.017-.012.001.052-.013l.418 1.956c.242-.051.485-.181.644-.268.197-.106.453-.255.768-.438zm-1.242 2.435c.042.01.105.023.16.033a1.458 1.458 0 0 0 .516 0c.055-.01.118-.024.16-.033L12 4.246l-.02.005-.018.003a6.892 6.892 0 0 1-.047.01l-.006.002.024-.004a.604.604 0 0 1 .134 0l.024.004-.006-.002a1.215 1.215 0 0 1-.047-.01l-.018-.003-.02-.005z"/></svg>