<svg xmlns="http://www.w3.org/2000/svg" width="24" height="24" fill="none"><path fill="#fff" fill-opacity=".01" d="M24 0v24H0V0z"/><path fill="#10161F" d="M16.24 8.26a.5.5 0 1 1-1 0 .5.5 0 0 1 1 0"/><path fill="#10161F" d="m11.145 5.074-.707-.707zM4.306 16.155l-.707-.707zm8.641-2.102.379-.925zm5.269-1.908a4.501 4.501 0 0 1-4.89.983l-.758 1.85a6.498 6.498 0 0 0 7.062-1.419zm0-6.364a4.5 4.5 0 0 1 0 6.364l1.414 1.414a6.5 6.5 0 0 0 0-9.192zm-6.364 0a4.5 4.5 0 0 1 6.364 0l1.414-1.414a6.5 6.5 0 0 0-9.192 0zm-1.3 3.592a4.489 4.489 0 0 1 1.3-3.592l-1.414-1.414A6.489 6.489 0 0 0 8.56 9.554zm-5.539 7.49 4.63-4.63-1.414-1.415-4.63 4.63zM6.55 18.57h-.83v2h.829zm5.74-5.657h-.083v2h.083zm2.95-4.653a.5.5 0 0 1 .5-.5v2a1.5 1.5 0 0 0 1.5-1.5zm.5-.5a.5.5 0 0 1 .5.5h-2a1.5 1.5 0 0 0 1.5 1.5zm.5.5a.5.5 0 0 1-.5.5v-2a1.5 1.5 0 0 0-1.5 1.5zm-.5.5a.5.5 0 0 1-.5-.5h2a1.5 1.5 0 0 0-1.5-1.5zm-3.949 6.567c0-.229.186-.414.415-.414v-2a2.414 2.414 0 0 0-2.415 2.414zm-2.414 2.414a2.414 2.414 0 0 0 2.414-2.414h-2a.414.414 0 0 1-.414.414zm-.414.414c0-.228.185-.414.414-.414v-2a2.414 2.414 0 0 0-2.414 2.414zM6.549 20.57a2.414 2.414 0 0 0 2.414-2.415h-2a.414.414 0 0 1-.414.415zm-2.95-5.122a3 3 0 0 0-.879 2.122h2a1 1 0 0 1 .293-.707zM8.56 9.554c.052.58-.087 1.02-.332 1.265l1.414 1.414c.817-.818.993-1.944.91-2.86zM2.72 17.57a3 3 0 0 0 3 3v-2a1 1 0 0 1-1-1zm10.605-4.442a2.74 2.74 0 0 0-1.037-.215v2a.75.75 0 0 1 .28.066z"/></svg>