<svg xmlns="http://www.w3.org/2000/svg" width="24" height="24" fill="none"><path fill="#fff" fill-opacity=".01" d="M24 0v24H0V0z"/><path fill="#10161F" d="m3.197 13.179-.96.28zm15.452-4.14-.972.237zM11.395 19.08l.27-.963zm-.268-5.84-.989-.152zm9.846 1.735-.981-.195zm-9.028 4.225-.179.984zm4.23-8.07.745-.667zm.774.136-.472-.881zM4.157 12.9c-.498-1.707-.066-3.344.821-4.39.869-1.023 2.154-1.479 3.561-.948l.707-1.87c-2.29-.865-4.443-.066-5.793 1.524-1.331 1.57-1.898 3.907-1.216 6.244zm15.464-4.097c-.578-2.366-2.238-4.107-4.175-4.8-1.965-.702-4.23-.318-5.78 1.575l1.548 1.268c.953-1.164 2.294-1.412 3.558-.96 1.291.462 2.484 1.664 2.905 3.39zm-7.497 9.416a5.375 5.375 0 0 1-.458-.1l-.542 1.926c.196.055.427.102.642.141zm-.458-.1c-4.631-1.302-6.9-3.134-7.509-5.22l-1.92.561c.917 3.14 4.114 5.242 8.887 6.585zm.449-4.726c.152-.995.77-1.707 1.446-2.001.643-.281 1.33-.196 1.87.407l1.49-1.334c-1.175-1.311-2.81-1.496-4.16-.906-1.32.576-2.37 1.875-2.623 3.53zm4.429 6.64c2.924-1.105 4.97-2.654 5.41-4.86l-1.962-.391c-.226 1.13-1.37 2.328-4.156 3.381zm5.41-4.86c.467-2.344-.857-4.662-2.963-5.15l-.451 1.949c.88.204 1.745 1.343 1.452 2.81zm-2.963-5.15c-.812-.187-1.684-.08-2.514.364l.944 1.763c.418-.223.796-.253 1.119-.178zm.768 1.086a6.576 6.576 0 0 0-.139-2.306l-1.943.474c.125.509.158 1.043.095 1.61zm-4.896 6.883-.103-.09-1.315 1.507.114.099zm-.103-.09c-2.177-1.902-2.817-3.39-2.645-4.51l-1.977-.302c-.336 2.189 1.01 4.311 3.307 6.319zm-1.201 1.606a2.99 2.99 0 0 0 2.985.526l-.708-1.87a.991.991 0 0 1-.973-.172zm-1.793.678c.97.177 2.179.034 3.04-.82l-1.408-1.42c-.247.245-.706.376-1.274.273zm3.665-8.387c.5.559 1.328.705 1.99.351l-.944-1.763a.357.357 0 0 1 .444.078zM8.539 7.561a2.394 2.394 0 0 0 2.675-.716L9.666 5.577a.396.396 0 0 1-.42.113z"/></svg>