<svg xmlns="http://www.w3.org/2000/svg" width="24" height="24" fill="none"><path fill="#fff" fill-opacity=".01" d="M24 0v24H0V0z"/><path fill="#10161F" fill-rule="evenodd" d="M14 2.5c1.47 0 2.965-.077 4.425.12.928.124 1.747.396 2.403 1.052.657.656.928 1.476 1.053 2.403.12.884.12 2 .119 3.355v3.144c0 1.823 0 3.293-.155 4.449-.162 1.2-.507 2.21-1.31 3.013-.802.802-1.812 1.148-3.013 1.31-1.156.154-2.625.154-4.449.154H6.25A3.25 3.25 0 0 1 3 18.25V13.71c0-.19 0-.354.014-.503A3 3 0 0 1 6 10.501V9.43c0-1.354 0-2.47.119-3.355.125-.927.396-1.747 1.053-2.403.656-.656 1.475-.928 2.403-1.053C11.035 2.423 12.53 2.5 14 2.5M6 12.501a1.01 1.01 0 0 0-.995.901A4.728 4.728 0 0 0 5 13.75v4.5c0 .605.43 1.11 1 1.225zm6.474-5.5h3.053c.416 0 .846-.01 1.238.152a2 2 0 0 1 1.083 1.082c.165.4.152.841.152 1.265 0 .425.013.866-.152 1.266a2 2 0 0 1-1.083 1.082c-.392.163-.822.152-1.239.152h-3.052c-.417 0-.847.01-1.24-.152a2 2 0 0 1-1.082-1.082C9.987 10.366 10 9.925 10 9.5c0-.424-.013-.865.152-1.265a2 2 0 0 1 1.083-1.082c.392-.163.822-.153 1.239-.153M12 9.5c0 .5-.013.5.5.5h3c.508 0 .5.007.5-.5 0-.5.013-.5-.5-.5h-3c-.512 0-.5 0-.5.5M10 15a1 1 0 0 1 1-1h5a1 1 0 0 1 0 2h-5a1 1 0 0 1-1-1" clip-rule="evenodd"/></svg>