<svg xmlns="http://www.w3.org/2000/svg" width="24" height="24" fill="none"><path fill="#fff" fill-opacity=".01" d="M24 0v24H0V0z"/><path fill="#10161F" fill-rule="evenodd" d="M10.5 2.5c1.127 0 2.264-.025 3.387.09.908.092 1.695.288 2.39.753a5 5 0 0 1 1.38 1.38c.465.696.661 1.483.754 2.39.089.88.089 1.975.089 3.333v.104a2.5 2.5 0 0 1 3 2.45v5.5a4 4 0 0 1-4 4h-6.073c-1.824 0-3.293 0-4.45-.155-1.2-.161-2.21-.507-3.013-1.31-.802-.802-1.147-1.812-1.309-3.012-.155-1.156-.155-2.626-.155-4.45v-3.127c0-1.358 0-2.454.09-3.333.092-.907.288-1.694.753-2.39a5 5 0 0 1 1.38-1.38c.695-.465 1.482-.661 2.39-.753 1.123-.115 2.26-.09 3.387-.09m8 10.5v7.233a2 2 0 0 0 1-1.733V13a.5.5 0 0 0-1 0m-12-3.5a1 1 0 0 1 1-1h6a1 1 0 1 1 0 2h-6a1 1 0 0 1-1-1m0 5a1 1 0 0 1 1-1h4a1 1 0 1 1 0 2h-4a1 1 0 0 1-1-1" clip-rule="evenodd"/></svg>