<svg xmlns="http://www.w3.org/2000/svg" width="24" height="24" fill="none"><path fill="#fff" fill-opacity=".01" d="M24 0v24H0V0z"/><path fill="#10161F" fill-rule="evenodd" d="M12 2a7.5 7.5 0 0 0-7.5 7.5c0 .233.004.468.008.703.02 1.163.042 2.335-.443 3.42a9.032 9.032 0 0 1-.284.561c-.228.429-.462.867-.522 1.34a2.2 2.2 0 0 0 1.454 2.352c.373.13.782.128 1.176.125L6.062 18H18.11c.395.004.803.007 1.177-.124a2.2 2.2 0 0 0 1.454-2.353c-.06-.472-.294-.91-.523-1.339-.1-.188-.2-.375-.284-.561-.484-1.085-.463-2.257-.443-3.42.005-.235.009-.47.009-.703A7.5 7.5 0 0 0 12 2m0 19a3.001 3.001 0 0 1-2.83-2h5.659a3.001 3.001 0 0 1-2.83 2" clip-rule="evenodd"/></svg>