<svg width="27" height="26" viewBox="0 0 27 26" fill="none" xmlns="http://www.w3.org/2000/svg">
<path fill-rule="evenodd" clip-rule="evenodd" d="M13.6336 1.69775C7.40594 1.69775 2.35742 6.74628 2.35742 12.9739C2.35742 19.2016 7.40594 24.2501 13.6336 24.2501C19.8613 24.2501 24.9098 19.2016 24.9098 12.9739C24.9098 6.74628 19.8613 1.69775 13.6336 1.69775ZM0.857422 12.9739C0.857422 5.91785 6.57752 0.197754 13.6336 0.197754C20.6897 0.197754 26.4098 5.91785 26.4098 12.9739C26.4098 20.03 20.6897 25.7501 13.6336 25.7501C6.57752 25.7501 0.857422 20.03 0.857422 12.9739ZM13.6447 6.28291C14.6115 5.17936 16.4248 5.87145 16.4248 7.32935V11.8061H17.918C19.2873 11.8061 20.0194 13.415 19.1126 14.4454L13.6186 20.6869C13.6184 20.6871 13.6188 20.6867 13.6186 20.6869C12.6519 21.7905 10.8378 21.0994 10.8378 19.6413V15.1645H9.34461C7.9761 15.1645 7.25819 13.5543 8.14626 12.5295L8.15005 12.5251L13.6439 6.28375C13.6442 6.28347 13.6444 6.28319 13.6447 6.28291ZM14.8136 7.24298C14.8069 7.24447 14.7934 7.24802 14.7728 7.27151L14.7713 7.27318L9.27869 13.5132C9.26099 13.5341 9.25731 13.5489 9.25607 13.559C9.25438 13.5729 9.25634 13.592 9.26553 13.6123C9.27472 13.6326 9.28741 13.6459 9.29777 13.6529C9.30511 13.6579 9.31748 13.6645 9.34461 13.6645H12.3378V19.6413C12.3378 19.672 12.3455 19.6838 12.35 19.69C12.3574 19.7 12.3722 19.7131 12.3951 19.7218C12.4181 19.7304 12.4374 19.7302 12.449 19.7277C12.4557 19.7262 12.4692 19.7226 12.4898 19.6991L12.4912 19.6975L17.9865 13.4544C17.9866 13.4544 17.9865 13.4544 17.9865 13.4544C18.0064 13.4318 18.01 13.4164 18.0112 13.4074C18.0128 13.3948 18.0111 13.3773 18.0025 13.3584C17.9939 13.3394 17.9818 13.3264 17.9709 13.3191C17.963 13.3137 17.9486 13.3061 17.918 13.3061H14.9248V7.32935C14.9248 7.29873 14.9171 7.28688 14.9126 7.28073C14.9052 7.27069 14.8904 7.25754 14.8674 7.24888C14.8445 7.24023 14.8251 7.24044 14.8136 7.24298Z" fill="currentColor"/>
</svg>
