<svg width="26" height="27" viewBox="0 0 26 27" fill="none" xmlns="http://www.w3.org/2000/svg">
<path fill-rule="evenodd" clip-rule="evenodd" d="M12.9356 2.1582C6.77698 2.1582 1.78442 7.15076 1.78442 13.3094C1.78442 19.468 6.77698 24.4606 12.9356 24.4606C19.0943 24.4606 24.0868 19.468 24.0868 13.3094C24.0868 7.15076 19.0943 2.1582 12.9356 2.1582ZM0.0344238 13.3094C0.0344238 6.18426 5.81048 0.408203 12.9356 0.408203C20.0608 0.408203 25.8368 6.18426 25.8368 13.3094C25.8368 20.4345 20.0608 26.2106 12.9356 26.2106C5.81048 26.2106 0.0344238 20.4345 0.0344238 13.3094ZM12.853 6.53564C13.8963 5.34533 15.8518 6.09228 15.8518 7.6648V12.0165H17.22C18.6965 12.0165 19.4866 13.752 18.5084 14.8635L13.0147 21.1047C13.0144 21.105 13.0141 21.1053 13.0138 21.1057C11.9706 22.2962 10.0148 21.5495 10.0148 19.9768V15.625H8.64661C7.1698 15.625 6.39636 13.8879 7.3538 12.7831L7.35823 12.778L12.8519 6.53689C12.8522 6.53647 12.8526 6.53606 12.853 6.53564ZM14.1018 7.7655L8.72404 13.875H11.7648V19.8761L17.1426 13.7665H14.1018V7.7655Z" fill="currentColor"/>
</svg>
