<svg width="25" height="25" viewBox="0 0 25 25" fill="none" xmlns="http://www.w3.org/2000/svg">
<path fill-rule="evenodd" clip-rule="evenodd" d="M12.6336 24.5001C19.2755 24.5001 24.6598 19.1158 24.6598 12.4739C24.6598 5.83206 19.2755 0.447754 12.6336 0.447754C5.99173 0.447754 0.607422 5.83206 0.607422 12.4739C0.607422 19.1158 5.99173 24.5001 12.6336 24.5001ZM10.3646 13.5043H7.87669C7.0796 13.5043 6.65288 12.5623 7.17622 11.9584L13.2711 5.03422C13.8347 4.39011 14.8975 4.79268 14.8975 5.64613V11.4431H17.3854C18.1906 11.4431 18.6173 12.3852 18.0859 12.989L11.991 19.9132C11.4274 20.5573 10.3646 20.1548 10.3646 19.3013V13.5043Z" fill="#FF5C00"/>
</svg>
