<svg xmlns="http://www.w3.org/2000/svg" width="24" height="24" fill="none"><path fill="#fff" fill-opacity=".01" d="M24 0v24H0V0z"/><path stroke="#10161F" stroke-linecap="round" stroke-width="2" d="M8.464 8.464A4.984 4.984 0 0 0 7 12c0 1.411.585 2.686 1.525 3.595m7.01-.06A4.984 4.984 0 0 0 17 12c0-1.364-.546-2.6-1.432-3.503M5.636 5.636A8.972 8.972 0 0 0 3 12a8.972 8.972 0 0 0 2.636 6.364M18.364 5.636A8.972 8.972 0 0 1 21 12a8.972 8.972 0 0 1-2.636 6.364M13 12a1 1 0 1 1-2 0 1 1 0 0 1 2 0Z"/></svg>