<svg xmlns="http://www.w3.org/2000/svg" width="24" height="24" fill="none"><path fill="#fff" fill-opacity=".01" d="M24 0v24H0V0z"/><path stroke="#10161F" stroke-width="2" d="M7.75 4.637c1.702-.982 2.553-1.473 3.468-1.618a5 5 0 0 1 1.564 0c.915.145 1.766.636 3.468 1.618 1.702.983 2.552 1.474 3.136 2.194a5 5 0 0 1 .782 1.355c.332.865.332 1.848.332 3.813 0 1.964 0 2.947-.332 3.812a5 5 0 0 1-.782 1.355c-.584.72-1.434 1.211-3.136 2.194-1.702.982-2.552 1.474-3.468 1.618a4.999 4.999 0 0 1-1.564 0c-.915-.145-1.766-.636-3.468-1.618-1.702-.983-2.553-1.474-3.136-2.194a5.001 5.001 0 0 1-.782-1.355C3.5 14.946 3.5 13.963 3.5 12c0-1.965 0-2.948.332-3.813a5 5 0 0 1 .782-1.355c.583-.72 1.434-1.211 3.136-2.194z"/><path stroke="#10161F" stroke-width="2" d="M15 12a3 3 0 1 1-6 0 3 3 0 0 1 6 0Z"/></svg>