<svg xmlns="http://www.w3.org/2000/svg" width="24" height="24" fill="none"><path fill="#fff" fill-opacity=".01" d="M24 0v24H0V0z"/><path stroke="#10161F" stroke-linecap="round" stroke-width="2" d="M4 7v0c1.69 0 2.535 0 3.273.308a4 4 0 0 1 .837.473c.644.475 1.078 1.2 1.948 2.649l1.884 3.14c.87 1.45 1.304 2.174 1.948 2.649.259.19.54.35.836.473C15.466 17 16.31 17 18 17v0m0-10h-1.084c-.632 0-.948 0-1.241.044a4 4 0 0 0-2.5 1.415c-.188.229-.35.5-.675 1.041v0M4 17h1.085c.631 0 .947 0 1.24-.044a4 4 0 0 0 2.5-1.415c.188-.229.35-.5.675-1.041"/><path fill="#10161F" fill-rule="evenodd" d="M17.847 4.507c-.503-.263-1.102.127-1.15.748-.032.407-.064.994-.064 1.708 0 .748.035 1.357.068 1.764.048.58.592.914 1.09.654.33-.171.806-.438 1.376-.808.57-.37 1.013-.701 1.31-.936.448-.355.465-1.051.042-1.388a17.102 17.102 0 0 0-1.325-.95c-.55-.358-1.019-.62-1.347-.792M17.847 14.617c-.503-.263-1.102.127-1.15.748-.032.406-.064.994-.064 1.708 0 .747.035 1.357.068 1.764.048.58.592.914 1.09.654.33-.171.806-.438 1.376-.808.57-.37 1.013-.701 1.31-.936.448-.355.465-1.051.042-1.388a17.13 17.13 0 0 0-1.325-.95c-.55-.358-1.019-.62-1.347-.792" clip-rule="evenodd"/></svg>