<svg xmlns="http://www.w3.org/2000/svg" width="24" height="24" fill="none"><path fill="#fff" fill-opacity=".01" d="M24 0v24H0V0z"/><path stroke="#10161F" stroke-linecap="round" stroke-linejoin="round" stroke-width="2" d="M13 4a1 1 0 1 1-2 0 1 1 0 0 1 2 0M12 20c2.573 0 3.86 0 4.862-.66a4.19 4.19 0 0 0 .116-.08c.978-.696 1.443-1.896 2.372-4.295l1.65-4.26s-3.7.736-5.5-.205C13.7 9.559 12 6 12 6s-1.7 3.765-3.5 4.706c-1.8.941-5.5 0-5.5 0l1.65 4.259c.929 2.4 1.394 3.599 2.372 4.295l.116.08C8.14 20 9.427 20 12 20"/><path fill="#10161F" d="M4 10a1.5 1.5 0 1 1-3 0 1.5 1.5 0 0 1 3 0M23 10a1.5 1.5 0 1 1-3 0 1.5 1.5 0 0 1 3 0"/></svg>