<svg width="1024" height="1024" viewBox="0 0 1024 1024" fill="none" xmlns="http://www.w3.org/2000/svg">
<g clip-path="url(#clip0_283_18)">
<g filter="url(#filter0_dii_283_18)">
<path fill-rule="evenodd" clip-rule="evenodd" d="M924 356.627C924 346.845 924.004 337.062 923.944 327.279C923.895 319.038 923.8 310.799 923.576 302.562C923.092 284.609 922.033 266.502 918.84 248.749C915.602 230.741 910.314 213.98 901.981 197.617C893.789 181.534 883.088 166.817 870.32 154.058C857.555 141.299 842.834 130.605 826.746 122.418C810.366 114.083 793.587 108.797 775.558 105.56C757.803 102.372 739.691 101.315 721.738 100.83C713.495 100.607 705.253 100.513 697.008 100.462C687.22 100.402 677.432 100.407 667.644 100.407L553.997 100H468.997L357.361 100.407C347.554 100.407 337.747 100.402 327.94 100.462C319.678 100.513 311.42 100.607 303.161 100.83C285.167 101.315 267.014 102.373 249.217 105.565C231.164 108.801 214.36 114.085 197.958 122.414C181.835 130.602 167.083 141.297 154.291 154.058C141.501 166.816 130.78 181.53 122.573 197.61C114.217 213.981 108.919 230.752 105.673 248.77C102.477 266.516 101.418 284.617 100.931 302.562C100.709 310.8 100.613 319.039 100.563 327.279C100.503 337.063 100 349.216 100 358.999L100.003 469.089L100 554.998L100.508 667.427C100.508 677.223 100.504 687.019 100.563 696.815C100.613 705.067 100.709 713.317 100.932 721.566C101.418 739.542 102.479 757.675 105.678 775.452C108.923 793.484 114.22 810.269 122.569 826.653C130.777 842.759 141.5 857.495 154.291 870.272C167.082 883.049 181.83 893.757 197.95 901.956C214.362 910.302 231.174 915.595 249.238 918.836C267.027 922.029 285.174 923.088 303.161 923.573C311.42 923.796 319.679 923.891 327.941 923.941C337.748 924.001 347.554 923.997 357.361 923.997L470.006 924H555.217L667.644 923.996C677.432 923.996 687.22 924.001 697.008 923.941C705.253 923.891 713.495 923.796 721.738 923.573C739.698 923.087 757.816 922.027 775.579 918.832C793.597 915.591 810.368 910.3 826.739 901.959C842.831 893.761 857.554 883.051 870.32 870.272C883.086 857.497 893.786 842.763 901.978 826.66C910.316 810.268 915.604 793.475 918.844 775.431C922.034 757.661 923.092 739.535 923.577 721.566C923.8 713.316 923.895 705.066 923.944 696.815C924.005 687.019 924 677.223 924 667.427C924 667.427 923.994 556.983 923.994 554.998V468.999C923.994 467.533 924 356.627 924 356.627" fill="#F45521"/>
</g>
<mask id="mask0_283_18" style="mask-type:alpha" maskUnits="userSpaceOnUse" x="100" y="100" width="824" height="824">
<path fill-rule="evenodd" clip-rule="evenodd" d="M924 356.627C924 346.845 924.004 337.062 923.944 327.279C923.895 319.038 923.8 310.799 923.576 302.562C923.092 284.609 922.033 266.502 918.84 248.749C915.602 230.741 910.314 213.98 901.981 197.617C893.789 181.534 883.088 166.817 870.32 154.058C857.555 141.299 842.834 130.605 826.746 122.418C810.366 114.083 793.587 108.797 775.558 105.56C757.803 102.372 739.691 101.315 721.738 100.83C713.495 100.607 705.253 100.513 697.008 100.462C687.22 100.402 677.432 100.407 667.644 100.407L553.997 100H468.997L357.361 100.407C347.554 100.407 337.747 100.402 327.94 100.462C319.678 100.513 311.42 100.607 303.161 100.83C285.167 101.315 267.014 102.373 249.217 105.565C231.164 108.801 214.36 114.085 197.958 122.414C181.835 130.602 167.083 141.297 154.291 154.058C141.501 166.816 130.78 181.53 122.573 197.61C114.217 213.981 108.919 230.752 105.673 248.77C102.477 266.516 101.418 284.617 100.931 302.562C100.709 310.8 100.613 319.039 100.563 327.279C100.503 337.063 100 349.216 100 358.999L100.003 469.089L100 554.998L100.508 667.427C100.508 677.223 100.504 687.019 100.563 696.815C100.613 705.067 100.709 713.317 100.932 721.566C101.418 739.542 102.479 757.675 105.678 775.452C108.923 793.484 114.22 810.269 122.569 826.653C130.777 842.759 141.5 857.495 154.291 870.272C167.082 883.049 181.83 893.757 197.95 901.956C214.362 910.302 231.174 915.595 249.238 918.836C267.027 922.029 285.174 923.088 303.161 923.573C311.42 923.796 319.679 923.891 327.941 923.941C337.748 924.001 347.554 923.997 357.361 923.997L470.006 924H555.217L667.644 923.996C677.432 923.996 687.22 924.001 697.008 923.941C705.253 923.891 713.495 923.796 721.738 923.573C739.698 923.087 757.816 922.027 775.579 918.832C793.597 915.591 810.368 910.3 826.739 901.959C842.831 893.761 857.554 883.051 870.32 870.272C883.086 857.497 893.786 842.763 901.978 826.66C910.316 810.268 915.604 793.475 918.844 775.431C922.034 757.661 923.092 739.535 923.577 721.566C923.8 713.316 923.895 705.066 923.944 696.815C924.005 687.019 924 677.223 924 667.427C924 667.427 923.994 556.983 923.994 554.998V468.999C923.994 467.533 924 356.627 924 356.627" fill="#F45521"/>
</mask>
<g mask="url(#mask0_283_18)">
<rect x="100" y="100" width="824" height="824" fill="#F45521"/>
<path d="M761.71 710.31C761.64 707.987 761.077 700.1 755.021 693.058C747.768 684.679 737.98 683.834 736.079 683.693" stroke="white" stroke-width="20" stroke-linecap="round" stroke-linejoin="round"/>
<path d="M785.723 713.338C785.3 708.62 783.328 692.777 770.231 679.186C758.401 666.793 744.388 663.624 739.529 662.709" stroke="white" stroke-width="20" stroke-linecap="round" stroke-linejoin="round"/>
<path d="M739.881 711.789C739.951 711.578 740.796 708.62 738.684 706.226C737.205 704.536 734.741 703.832 732.487 704.536" stroke="white" stroke-width="20" stroke-linecap="round" stroke-linejoin="round"/>
<path d="M385.686 564.618C372.447 560.112 357.801 563.632 348.365 573.702C338.506 584.194 337.661 597.714 340.056 606.939C342.591 616.375 351.111 622.642 360.476 622.642C362.237 622.642 364.068 622.43 365.899 621.937C373.996 619.825 379.7 613.276 381.249 605.53C389.066 604.615 396.037 599.334 398.783 591.377C402.586 580.392 396.741 568.35 385.686 564.618ZM382.869 454.416C382.306 442.727 372.377 433.784 360.758 434.347C338.366 435.474 295.059 442.586 256.823 477.795C221.122 510.679 209.644 550.183 206.053 570.815C204.011 582.293 211.686 593.278 223.164 595.32C224.431 595.531 225.629 595.672 226.826 595.672C236.895 595.672 245.768 588.49 247.599 578.209C250.345 562.858 258.865 533.353 285.412 508.919C314.917 481.738 349.421 477.231 362.871 476.597C374.419 475.964 383.432 466.035 382.869 454.416ZM370.546 498.356C359.561 497.793 331.254 498.92 306.396 520.749C281.258 542.86 276.681 571.167 275.906 582.293C275.061 593.912 283.863 604.052 295.482 604.826C295.975 604.897 296.468 604.897 296.961 604.897C307.946 604.897 317.241 596.376 318.015 585.25C318.367 580.603 320.48 564.548 334.211 552.436C347.801 540.465 363.786 540.325 368.363 540.536C379.982 541.099 389.911 532.156 390.474 520.467C391.178 508.848 382.165 498.92 370.546 498.356Z" fill="white"/>
<path d="M967.538 1145.2C949.019 817.696 783.68 561.52 582.429 561.52C381.179 561.52 216.756 816.217 197.461 1142.32C196.405 1160.63 210.911 1176.12 229.29 1176.12H938.386C955.145 1176.05 968.524 1161.96 967.538 1145.2ZM632.284 860.087C608.976 860.087 590.105 841.215 590.105 817.907C590.105 794.599 608.976 775.728 632.284 775.728C655.592 775.728 674.464 794.599 674.464 817.907C674.464 841.215 655.592 860.087 632.284 860.087ZM789.102 857.27C786.004 860.509 781.849 862.129 777.695 862.129C773.751 862.129 769.808 860.65 766.71 857.693L736.431 828.681C733.262 825.653 731.501 821.428 731.572 817.062C731.642 812.696 733.473 808.542 736.712 805.584L766.991 777.77C773.47 771.855 783.469 772.277 789.384 778.755C795.299 785.234 794.876 795.233 788.398 801.148L770.512 817.555L788.609 834.878C794.947 840.933 795.158 850.933 789.102 857.27Z" fill="white"/>
</g>
</g>
<defs>
<filter id="filter0_dii_283_18" x="90" y="97" width="844" height="847" filterUnits="userSpaceOnUse" color-interpolation-filters="sRGB">
<feFlood flood-opacity="0" result="BackgroundImageFix"/>
<feColorMatrix in="SourceAlpha" type="matrix" values="0 0 0 0 0 0 0 0 0 0 0 0 0 0 0 0 0 0 127 0" result="hardAlpha"/>
<feOffset dy="10"/>
<feGaussianBlur stdDeviation="5"/>
<feColorMatrix type="matrix" values="0 0 0 0 0 0 0 0 0 0 0 0 0 0 0 0 0 0 0.3 0"/>
<feBlend mode="normal" in2="BackgroundImageFix" result="effect1_dropShadow_283_18"/>
<feBlend mode="normal" in="SourceGraphic" in2="effect1_dropShadow_283_18" result="shape"/>
<feColorMatrix in="SourceAlpha" type="matrix" values="0 0 0 0 0 0 0 0 0 0 0 0 0 0 0 0 0 0 127 0" result="hardAlpha"/>
<feOffset dy="4"/>
<feGaussianBlur stdDeviation="1"/>
<feComposite in2="hardAlpha" operator="arithmetic" k2="-1" k3="1"/>
<feColorMatrix type="matrix" values="0 0 0 0 1 0 0 0 0 1 0 0 0 0 1 0 0 0 1 0"/>
<feBlend mode="normal" in2="shape" result="effect2_innerShadow_283_18"/>
<feColorMatrix in="SourceAlpha" type="matrix" values="0 0 0 0 0 0 0 0 0 0 0 0 0 0 0 0 0 0 127 0" result="hardAlpha"/>
<feOffset dy="-3"/>
<feGaussianBlur stdDeviation="2"/>
<feComposite in2="hardAlpha" operator="arithmetic" k2="-1" k3="1"/>
<feColorMatrix type="matrix" values="0 0 0 0 0 0 0 0 0 0 0 0 0 0 0 0 0 0 0.25 0"/>
<feBlend mode="normal" in2="effect2_innerShadow_283_18" result="effect3_innerShadow_283_18"/>
</filter>
<clipPath id="clip0_283_18">
<rect width="1024" height="1024" fill="white"/>
</clipPath>
</defs>
</svg>
